<?xml version="1.0" encoding="utf-8"?>
<!-- Generator: Adobe Illustrator 26.0.1, SVG Export Plug-In . SVG Version: 6.00 Build 0)  -->
<svg version="1.1" id="Layer_1" xmlns="http://www.w3.org/2000/svg" xmlns:xlink="http://www.w3.org/1999/xlink" x="0px" y="0px"
	 width="384px" height="123px" viewBox="0 0 384 123" style="enable-background:new 0 0 384 123;" xml:space="preserve">
<style type="text/css">
	.st0{opacity:0.5;}
	.st1{fill:#FFFFFF;}
	.st2{fill:url(#SVGID_00000145043144520739313530000015173774328759956651_);}
	.st3{fill:#E00070;}
	.st4{fill:#00264E;}
</style>
<g>
	<g>
		<g>
			<defs>
				<path id="SVGID_1_" d="M36.2,1.4C20.6,1.4,8,14.1,8,29.7c0,15.6,12.7,28.3,28.3,28.3c15.6,0,28.3-12.7,28.3-28.3
					C64.5,14.1,51.8,1.4,36.2,1.4 M36.2,43.6c-7.7,0-13.9-6.2-13.9-13.9c0-7.7,6.2-13.9,13.9-13.9c7.7,0,13.9,6.2,13.9,13.9
					C50.1,37.4,43.9,43.6,36.2,43.6"/>
			</defs>
			
				<linearGradient id="SVGID_00000062189563136233727020000011033883333806749615_" gradientUnits="userSpaceOnUse" x1="36.22" y1="28.9068" x2="36.22" y2="5.7966">
				<stop  offset="1.614687e-07" style="stop-color:#D21861"/>
				<stop  offset="0.2053" style="stop-color:#D2195A"/>
				<stop  offset="0.5096" style="stop-color:#D11A46"/>
				<stop  offset="0.8736" style="stop-color:#D01D25"/>
				<stop  offset="1" style="stop-color:#D01E18"/>
			</linearGradient>
			<use xlink:href="#SVGID_1_"  style="overflow:visible;fill:url(#SVGID_00000062189563136233727020000011033883333806749615_);"/>
			<clipPath id="SVGID_00000160186143440928922660000009609504478726156458_">
				<use xlink:href="#SVGID_1_"  style="overflow:visible;"/>
			</clipPath>
		</g>
	</g>
	<g class="st0">
		<g>
			<path class="st1" d="M47.8,37.3L47.8,37.3c-2.5,3.8-6.8,6.3-11.6,6.3c-4.9,0-9.1-2.5-11.6-6.2c3,5.1,4.7,11.2,4.7,17.7
				c0,0.7,0,1.4-0.1,2.1c2.2,0.6,4.6,0.9,7,0.9c2.4,0,4.7-0.3,7-0.9c0-0.7-0.1-1.4-0.1-2.1C43.1,48.5,44.9,42.4,47.8,37.3"/>
		</g>
	</g>
	
		<linearGradient id="SVGID_00000074436849839244918460000010558121193567519925_" gradientUnits="userSpaceOnUse" x1="36.22" y1="101.6537" x2="36.22" y2="62.8127">
		<stop  offset="0" style="stop-color:#0FA4DE"/>
		<stop  offset="0.1475" style="stop-color:#178ECD"/>
		<stop  offset="0.5304" style="stop-color:#2A5AA6"/>
		<stop  offset="0.8191" style="stop-color:#363A8D"/>
		<stop  offset="0.9782" style="stop-color:#3A2E84"/>
	</linearGradient>
	<path style="fill:url(#SVGID_00000074436849839244918460000010558121193567519925_);" d="M50.4,77.9L50.4,77.9
		c3.1,3.5,5,8.1,5,13.1c0,10.7-8.6,19.4-19.2,19.4h0h0C25.6,110.5,17,101.8,17,91c0-5.1,1.9-9.7,5-13.1h0c6.5-7.2,7.2-14.6,7.1-18
		C15.6,63.2,5.5,75.5,5.5,90.3c0,17.2,13.8,31.2,30.8,31.2h0h0c17,0,30.8-14,30.8-31.2c0-14.8-10.1-27.1-23.7-30.3
		C43.2,63.3,43.9,70.7,50.4,77.9"/>
</g>
<g>
	<path class="st3" d="M109.2,44.9c-2-1.1-4.2-1.7-6.7-1.7c-2.5,0-4.8,0.6-6.7,1.7c-2,1.1-3.5,2.6-4.6,4.6c-1.1,2-1.7,4.2-1.7,6.8
		c0,2.5,0.5,4.8,1.6,6.8c1.1,2,2.5,3.5,4.4,4.6c1.9,1.1,4,1.7,6.5,1.7c2.2,0,4.1-0.5,5.8-1.6c1.6-1,2.9-2.4,3.8-4.1v2.2
		c0,2-0.4,3.8-1.2,5.3c-0.8,1.5-1.9,2.7-3.2,3.4c-1.4,0.8-2.9,1.2-4.5,1.2c-1.8,0-3.4-0.3-4.8-1c-1.4-0.7-2.5-1.5-3.4-2.6
		c-0.3-0.4-0.7-0.7-1.3-0.8c-0.5-0.1-1,0-1.5,0.3c-0.4,0.3-0.7,0.7-0.7,1.1c-0.1,0.5,0.1,0.9,0.4,1.4c1.3,1.6,2.9,2.9,4.8,3.8
		c1.9,0.9,4,1.4,6.4,1.4c2.5,0,4.8-0.6,6.7-1.8c1.9-1.2,3.5-2.8,4.6-4.8c1.1-2,1.7-4.3,1.7-6.8v-9.8c0-2.6-0.6-4.8-1.7-6.8
		C112.7,47.6,111.1,46,109.2,44.9z M107.2,64.6c-1.4,0.8-2.9,1.2-4.7,1.2c-1.8,0-3.4-0.4-4.7-1.2c-1.4-0.8-2.5-1.9-3.2-3.3
		c-0.8-1.4-1.2-3.1-1.2-4.9c0-1.8,0.4-3.5,1.2-4.9c0.8-1.4,1.9-2.6,3.2-3.4c1.4-0.8,3-1.2,4.7-1.2c1.7,0,3.3,0.4,4.7,1.2
		c1.4,0.8,2.4,1.9,3.2,3.4c0.8,1.4,1.1,3.1,1.1,4.9c0,1.8-0.4,3.5-1.1,4.9C109.6,62.7,108.6,63.8,107.2,64.6z"/>
	<path class="st3" d="M138.1,43.9c-0.8-0.5-2-0.7-3.6-0.7c-1.8,0-3.5,0.4-5,1.3c-1.2,0.7-2.1,1.5-3,2.6v-1.7c0-0.6-0.2-1.1-0.5-1.5
		c-0.3-0.3-0.8-0.5-1.5-0.5c-0.6,0-1.1,0.2-1.5,0.5c-0.3,0.3-0.5,0.8-0.5,1.5v21.7c0,0.6,0.2,1.1,0.5,1.5c0.3,0.3,0.8,0.5,1.5,0.5
		c0.6,0,1.1-0.2,1.5-0.5c0.3-0.3,0.5-0.8,0.5-1.5V53.2c0-1.4,0.4-2.7,1.3-3.7c0.8-1,2-1.8,3.4-2.2c1.4-0.5,3.1-0.6,4.9-0.3
		c0.5,0,0.9,0,1.3,0c0.4,0,0.7-0.1,1-0.3c0.3-0.2,0.5-0.5,0.6-1C139.2,45,138.9,44.4,138.1,43.9z"/>
	<path class="st3" d="M146.5,33.4c-0.7,0-1.4,0.3-1.9,0.8c-0.5,0.5-0.8,1.2-0.8,1.9c0,0.8,0.3,1.4,0.8,2c0.5,0.5,1.2,0.8,1.9,0.8
		c0.8,0,1.4-0.3,1.9-0.8c0.5-0.5,0.8-1.2,0.8-2c0-0.8-0.3-1.4-0.8-1.9C147.8,33.6,147.2,33.4,146.5,33.4z"/>
	<path class="st3" d="M146.5,43.5c-0.6,0-1.1,0.2-1.5,0.5c-0.4,0.4-0.6,0.9-0.6,1.5v21.6c0,0.6,0.2,1.1,0.6,1.5
		c0.4,0.4,0.9,0.6,1.5,0.6c0.6,0,1.1-0.2,1.4-0.6c0.4-0.4,0.5-0.9,0.5-1.5V45.5c0-0.6-0.2-1.1-0.5-1.5
		C147.6,43.7,147.1,43.5,146.5,43.5z"/>
	<path class="st3" d="M179.2,32.5c-0.6,0-1.1,0.2-1.5,0.5c-0.4,0.4-0.6,0.9-0.6,1.5v13.4c-1.1-1.4-2.4-2.5-4.1-3.4
		c-1.6-0.9-3.5-1.3-5.5-1.3c-2.4,0-4.5,0.6-6.4,1.7c-1.9,1.1-3.4,2.7-4.5,4.7c-1.1,2-1.6,4.2-1.6,6.7c0,2.5,0.6,4.7,1.7,6.7
		c1.1,2,2.7,3.5,4.7,4.7c2,1.1,4.2,1.7,6.7,1.7c2.4,0,4.6-0.6,6.6-1.7c1.9-1.1,3.5-2.7,4.6-4.6c1.1-2,1.7-4.1,1.8-6.6V34.5
		c0-0.6-0.2-1.1-0.6-1.5C180.3,32.7,179.8,32.5,179.2,32.5z M176.1,61.1c-0.8,1.4-1.9,2.5-3.2,3.4c-1.4,0.8-2.9,1.2-4.6,1.2
		c-1.7,0-3.3-0.4-4.6-1.2c-1.4-0.8-2.5-2-3.3-3.4c-0.8-1.4-1.2-3-1.2-4.9c0-1.8,0.4-3.4,1.2-4.8c0.8-1.4,1.9-2.6,3.3-3.4
		c1.4-0.8,2.9-1.2,4.6-1.2c1.7,0,3.3,0.4,4.6,1.2c1.4,0.8,2.5,1.9,3.2,3.4c0.8,1.4,1.2,3,1.2,4.8C177.3,58.1,176.9,59.7,176.1,61.1z
		"/>
	<path class="st3" d="M207.1,58.6c-0.6-1-1.6-1.8-2.9-2.6c-1.4-0.7-3.2-1.3-5.6-1.7c-1.7-0.3-3-0.7-3.9-1.1
		c-0.9-0.4-1.6-0.8-1.9-1.3c-0.4-0.5-0.5-1.1-0.5-1.8c0-1,0.5-1.8,1.5-2.4c1-0.6,2.3-0.9,3.9-0.9c1.3,0,2.4,0.2,3.4,0.6
		c1,0.4,1.9,1,2.7,1.8c0.4,0.4,0.8,0.7,1.4,0.7c0.5,0.1,1,0,1.5-0.2c0.4-0.3,0.7-0.7,0.7-1.2c0.1-0.5-0.1-0.9-0.5-1.4
		c-0.9-1.2-2.2-2.1-3.7-2.8c-1.5-0.7-3.3-1.1-5.4-1.1c-1.7,0-3.2,0.3-4.6,0.8c-1.4,0.5-2.6,1.3-3.4,2.4c-0.9,1.1-1.3,2.4-1.3,4
		c0,1.8,0.7,3.3,2.2,4.5c1.5,1.3,3.8,2.1,6.9,2.7c2.4,0.4,4.2,1,5.2,1.7c1,0.7,1.5,1.6,1.5,2.7c0,1.1-0.5,2-1.5,2.7
		c-1,0.7-2.6,1.1-4.7,1.1c-1.5,0-2.8-0.2-4-0.7c-1.2-0.5-2.2-1.1-2.8-1.9c-0.4-0.4-0.8-0.6-1.3-0.7c-0.5-0.1-1,0.1-1.5,0.4
		c-0.4,0.4-0.7,0.8-0.7,1.4c-0.1,0.5,0.1,1,0.5,1.4c1.1,1.2,2.6,2.1,4.4,2.7c1.8,0.6,3.7,1,5.7,1c2,0,3.8-0.3,5.3-1
		c1.5-0.7,2.7-1.5,3.5-2.7c0.8-1.1,1.2-2.4,1.2-3.8C208,60.7,207.7,59.6,207.1,58.6z"/>
</g>
<g>
	<path class="st4" d="M233.8,45c-2-1.1-4.2-1.7-6.7-1.7c-2.4,0-4.6,0.6-6.6,1.7c-1.9,1.1-3.5,2.7-4.6,4.6c-1.1,2-1.7,4.1-1.8,6.6
		v21.9c0,0.6,0.2,1.1,0.6,1.5c0.4,0.4,0.9,0.6,1.5,0.6c0.6,0,1.1-0.2,1.4-0.6c0.4-0.4,0.5-0.9,0.5-1.5V64.7c1.1,1.4,2.4,2.5,4.1,3.4
		c1.7,0.9,3.5,1.3,5.5,1.3c2.4,0,4.5-0.6,6.4-1.7c1.9-1.1,3.4-2.7,4.4-4.7c1.1-2,1.6-4.2,1.6-6.7c0-2.5-0.6-4.7-1.7-6.7
		C237.3,47.7,235.8,46.1,233.8,45z M235.1,61.2c-0.8,1.4-1.9,2.6-3.3,3.4c-1.4,0.8-2.9,1.2-4.7,1.2c-1.7,0-3.2-0.4-4.6-1.2
		c-1.4-0.8-2.5-1.9-3.3-3.4c-0.8-1.4-1.2-3-1.2-4.8c0-1.8,0.4-3.4,1.2-4.9c0.8-1.4,1.9-2.5,3.3-3.4c1.4-0.8,2.9-1.2,4.6-1.2
		c1.8,0,3.3,0.4,4.7,1.2c1.4,0.8,2.5,2,3.3,3.4c0.8,1.4,1.2,3,1.2,4.9C236.3,58.1,235.9,59.7,235.1,61.2z"/>
	<path class="st4" d="M265,44.9c-1.8-1.1-3.8-1.6-6.2-1.6c-2.4,0-4.6,0.6-6.4,1.7c-1.9,1.1-3.3,2.7-4.4,4.6c-1.1,2-1.6,4.2-1.6,6.8
		c0,2.5,0.6,4.8,1.7,6.8c1.1,2,2.7,3.5,4.6,4.6c2,1.1,4.2,1.7,6.8,1.7c1.5,0,3-0.3,4.6-0.8c1.6-0.6,2.9-1.3,4-2.2
		c0.4-0.3,0.6-0.8,0.6-1.2c0-0.5-0.2-0.9-0.7-1.3c-0.3-0.3-0.8-0.4-1.2-0.4c-0.5,0-0.9,0.2-1.3,0.5c-0.7,0.6-1.5,1-2.6,1.4
		c-1.1,0.4-2.2,0.6-3.3,0.6c-1.8,0-3.5-0.4-4.9-1.2c-1.4-0.8-2.5-2-3.4-3.4c-0.6-1.1-1-2.3-1.1-3.6h18.6c0.5,0,1-0.2,1.3-0.5
		c0.3-0.3,0.5-0.8,0.5-1.3c0-2.4-0.5-4.6-1.4-6.5C268.1,47.4,266.7,45.9,265,44.9z M254.1,48c1.3-0.8,2.9-1.2,4.6-1.2
		c1.7,0,3.1,0.4,4.3,1.2c1.2,0.8,2.1,1.9,2.8,3.2c0.5,1,0.8,2.1,0.9,3.2h-16.7c0.2-1.1,0.5-2.1,0.9-3C251.8,50,252.8,48.8,254.1,48z
		"/>
	<path class="st4" d="M292.7,43.9c-0.8-0.5-2-0.7-3.6-0.7c-1.8,0-3.5,0.4-5,1.3c-1.2,0.7-2.1,1.5-3,2.6v-1.7c0-0.6-0.2-1.1-0.5-1.5
		c-0.3-0.3-0.8-0.5-1.5-0.5c-0.6,0-1.1,0.2-1.5,0.5c-0.3,0.3-0.5,0.8-0.5,1.5v21.7c0,0.6,0.2,1.1,0.5,1.5c0.3,0.3,0.8,0.5,1.5,0.5
		c0.6,0,1.1-0.2,1.5-0.5c0.3-0.3,0.5-0.8,0.5-1.5V53.2c0-1.4,0.4-2.7,1.3-3.7c0.8-1,2-1.8,3.4-2.2c1.4-0.5,3.1-0.6,4.9-0.3
		c0.5,0,0.9,0,1.3,0c0.4,0,0.7-0.1,1-0.3c0.3-0.2,0.5-0.5,0.6-1C293.8,45,293.5,44.4,292.7,43.9z"/>
	<path class="st4" d="M308.9,47.4c0.6,0,1.1-0.2,1.5-0.5c0.4-0.3,0.6-0.8,0.6-1.4c0-0.6-0.2-1-0.6-1.4c-0.4-0.4-0.9-0.5-1.5-0.5
		h-6.2v-6.2c0-0.6-0.2-1.1-0.6-1.5c-0.4-0.4-0.8-0.6-1.4-0.6c-0.6,0-1.1,0.2-1.4,0.6c-0.4,0.4-0.5,0.9-0.5,1.5v22.7
		c0,1.7,0.4,3.3,1.1,4.6c0.7,1.4,1.7,2.5,3,3.2c1.3,0.8,2.7,1.2,4.4,1.2h0.9c0.7,0,1.2-0.2,1.6-0.5c0.4-0.4,0.6-0.8,0.6-1.4
		c0-0.6-0.2-1.1-0.5-1.5c-0.3-0.4-0.8-0.6-1.3-0.6h-1.4c-1.3,0-2.4-0.5-3.3-1.4c-0.9-1-1.3-2.2-1.3-3.6V47.4H308.9z"/>
	<path class="st4" d="M319.8,43.5c-0.6,0-1.1,0.2-1.5,0.5c-0.4,0.4-0.6,0.9-0.6,1.5v21.6c0,0.6,0.2,1.1,0.6,1.5
		c0.4,0.4,0.9,0.6,1.5,0.6c0.6,0,1.1-0.2,1.4-0.6c0.4-0.4,0.5-0.9,0.5-1.5V45.5c0-0.6-0.2-1.1-0.5-1.5
		C320.8,43.7,320.3,43.5,319.8,43.5z"/>
	<path class="st4" d="M319.8,33.4c-0.8,0-1.4,0.3-1.9,0.8c-0.5,0.5-0.8,1.2-0.8,1.9c0,0.8,0.3,1.4,0.8,2c0.5,0.5,1.2,0.8,1.9,0.8
		c0.7,0,1.4-0.3,1.9-0.8c0.5-0.5,0.8-1.2,0.8-2c0-0.8-0.3-1.4-0.8-1.9C321.1,33.6,320.5,33.4,319.8,33.4z"/>
	<path class="st4" d="M346.1,56c-1.4-0.7-3.2-1.3-5.6-1.7c-1.7-0.3-3-0.7-3.9-1.1c-0.9-0.4-1.6-0.8-1.9-1.3
		c-0.4-0.5-0.5-1.1-0.5-1.8c0-1,0.5-1.8,1.5-2.4c1-0.6,2.3-0.9,3.9-0.9c1.3,0,2.4,0.2,3.4,0.6c1,0.4,1.9,1,2.7,1.8
		c0.4,0.4,0.8,0.7,1.4,0.7c0.5,0.1,1,0,1.5-0.2c0.4-0.3,0.7-0.7,0.8-1.2c0.1-0.5-0.1-0.9-0.5-1.4c-0.9-1.2-2.2-2.1-3.7-2.8
		c-1.5-0.7-3.3-1.1-5.4-1.1c-1.7,0-3.2,0.3-4.6,0.8c-1.4,0.5-2.6,1.3-3.4,2.4c-0.9,1.1-1.3,2.4-1.3,4c0,1.8,0.7,3.3,2.2,4.5
		c1.5,1.3,3.8,2.1,6.9,2.7c2.4,0.4,4.2,1,5.2,1.7c1,0.7,1.5,1.6,1.5,2.7c0,1.1-0.5,2-1.5,2.7c-1,0.7-2.6,1.1-4.7,1.1
		c-1.5,0-2.8-0.2-4-0.7c-1.2-0.5-2.2-1.1-2.8-1.9c-0.4-0.4-0.8-0.6-1.3-0.7c-0.5-0.1-1,0.1-1.5,0.4c-0.4,0.4-0.7,0.8-0.7,1.4
		c-0.1,0.5,0.1,1,0.5,1.4c1.1,1.2,2.6,2.1,4.4,2.7c1.8,0.6,3.7,1,5.7,1c2,0,3.8-0.3,5.3-1c1.5-0.7,2.7-1.5,3.5-2.7
		c0.8-1.1,1.2-2.4,1.2-3.8c0-1.2-0.3-2.3-0.9-3.3C348.4,57.6,347.5,56.8,346.1,56z"/>
	<path class="st4" d="M377.4,49.3c-1-1.9-2.3-3.4-4.1-4.5c-1.8-1.1-3.8-1.6-6.2-1.6c-2.4,0-4.6,0.6-6.4,1.7
		c-1.9,1.1-3.3,2.7-4.4,4.6c-1.1,2-1.6,4.2-1.6,6.8c0,2.5,0.6,4.8,1.7,6.8c1.1,2,2.7,3.5,4.6,4.6c2,1.1,4.2,1.7,6.8,1.7
		c1.5,0,3-0.3,4.6-0.8c1.6-0.6,2.9-1.3,4-2.2c0.4-0.3,0.6-0.8,0.6-1.2c0-0.5-0.2-0.9-0.7-1.3c-0.3-0.3-0.8-0.4-1.2-0.4
		c-0.5,0-0.9,0.2-1.3,0.5c-0.7,0.6-1.5,1-2.6,1.4c-1.1,0.4-2.2,0.6-3.3,0.6c-1.8,0-3.5-0.4-4.9-1.2c-1.4-0.8-2.5-2-3.4-3.4
		c-0.6-1.1-1-2.3-1.1-3.6H377c0.5,0,1-0.2,1.3-0.5c0.3-0.3,0.5-0.8,0.5-1.3C378.9,53.4,378.4,51.2,377.4,49.3z M362.5,48
		c1.3-0.8,2.9-1.2,4.6-1.2c1.7,0,3.1,0.4,4.3,1.2c1.2,0.8,2.1,1.9,2.8,3.2c0.5,1,0.8,2.1,0.9,3.2h-16.7c0.2-1.1,0.5-2.1,0.9-3
		C360.2,50,361.2,48.8,362.5,48z"/>
</g>
</svg>
