<?xml version="1.0" standalone="no"?>
<!DOCTYPE svg PUBLIC "-//W3C//DTD SVG 20010904//EN"
 "http://www.w3.org/TR/2001/REC-SVG-20010904/DTD/svg10.dtd">
<svg version="1.0" xmlns="http://www.w3.org/2000/svg"
 width="517.000000pt" height="540.000000pt" viewBox="0 0 517.000000 540.000000"
 preserveAspectRatio="xMidYMid meet">

<g transform="translate(0.000000,540.000000) scale(0.100000,-0.100000)"
fill="#000000" stroke="none">
<path d="M1967 1744 c-4 -4 -7 -16 -7 -26 0 -14 6 -19 23 -16 14 2 22 10 22
23 0 20 -25 32 -38 19z"/>
<path d="M4470 1633 c-95 -49 -83 -183 20 -214 53 -16 107 10 134 65 17 36 18
43 5 79 -25 71 -96 102 -159 70z m99 -17 c67 -35 65 -143 -4 -174 -51 -23
-107 -7 -131 39 -47 91 44 182 135 135z"/>
<path d="M4466 1551 c-4 -5 -2 -12 3 -15 5 -4 12 -2 15 3 4 5 2 12 -3 15 -5 4
-12 2 -15 -3z"/>
<path d="M4556 1551 c-4 -5 -2 -12 3 -15 5 -4 12 -2 15 3 4 5 2 12 -3 15 -5 4
-12 2 -15 -3z"/>
<path d="M4496 1483 c10 -7 21 -13 24 -13 3 0 14 6 24 13 15 11 12 12 -24 12
-36 0 -39 -1 -24 -12z"/>
<path d="M430 325 l0 -105 38 2 c36 1 36 1 5 5 -32 4 -33 5 -33 54 0 48 1 49
30 49 17 0 39 -9 50 -20 11 -11 20 -16 20 -11 0 6 -9 16 -20 24 -11 8 -18 16
-15 18 2 3 -11 3 -30 1 -35 -4 -35 -4 -35 37 0 39 2 41 29 41 16 0 37 -7 45
-16 9 -8 16 -11 16 -5 0 15 -35 31 -69 31 l-31 0 0 -105z"/>
<path d="M950 421 c0 -5 5 -13 10 -16 6 -3 10 -2 10 4 0 5 -4 13 -10 16 -5 3
-10 2 -10 -4z"/>
<path d="M976 370 c3 -14 11 -32 16 -40 6 -10 7 -7 2 10 -3 14 -11 32 -16 40
-6 10 -7 7 -2 -10z"/>
<path d="M616 361 c-3 -4 6 -6 19 -3 14 2 25 6 25 8 0 8 -39 4 -44 -5z"/>
<path d="M761 361 c-10 -7 -5 -9 18 -8 39 2 67 -27 41 -43 -9 -6 -11 -10 -3
-10 8 0 12 -13 11 -35 -1 -19 2 -38 5 -42 4 -3 7 21 7 55 0 79 -32 113 -79 83z"/>
<path d="M1080 295 c0 -43 2 -76 5 -74 7 8 9 139 1 146 -3 3 -6 -29 -6 -72z"/>
<path d="M1116 361 c-3 -4 5 -6 17 -4 33 6 45 -14 50 -82 l3 -60 2 62 c1 45
-2 66 -14 77 -17 17 -50 21 -58 7z"/>
<path d="M1238 363 c12 -2 30 -2 40 0 9 3 -1 5 -23 4 -22 0 -30 -2 -17 -4z"/>
<path d="M587 333 c-4 -3 -7 -21 -7 -40 0 -39 30 -74 63 -72 20 1 20 2 2 6
-29 7 -55 33 -55 55 0 15 8 18 55 18 46 0 55 3 54 18 0 10 -3 12 -6 5 -3 -8
-24 -13 -55 -13 -40 0 -49 3 -44 15 6 16 3 19 -7 8z"/>
<path d="M906 305 c-3 -9 -6 -17 -6 -18 0 -1 24 0 54 1 51 4 54 2 60 -23 4
-15 9 -25 12 -23 2 3 -1 18 -6 34 -10 27 -14 29 -51 26 -25 -3 -44 0 -49 8 -5
8 -9 7 -14 -5z"/>
<path d="M768 293 c7 -3 16 -2 19 1 4 3 -2 6 -13 5 -11 0 -14 -3 -6 -6z"/>
<path d="M522 252 c-11 -25 -11 -25 4 -10 9 9 15 21 13 27 -2 6 -10 -2 -17
-17z"/>
<path d="M730 263 c0 -17 29 -43 48 -42 13 0 11 3 -5 9 -12 5 -26 17 -32 27
-6 10 -11 13 -11 6z"/>
<path d="M886 255 c-3 -9 -6 -22 -5 -28 0 -7 5 -1 10 12 5 13 8 26 5 28 -2 2
-6 -3 -10 -12z"/>
<path d="M1253 240 c2 -8 12 -16 23 -17 13 -2 15 -1 4 4 -8 3 -19 11 -23 17
-6 7 -7 6 -4 -4z"/>
</g>
</svg>
