<?xml version="1.0" encoding="UTF-8"?>
<svg version="1.1" xmlns="http://www.w3.org/2000/svg" width="517" height="540">
<path d="M0 0 C170.61 0 341.22 0 517 0 C517 178.2 517 356.4 517 540 C346.39 540 175.78 540 0 540 C0 361.8 0 183.6 0 0 Z " fill="#F0F0F0" transform="translate(0,0)"/>
<path d="M0 0 C170.61 0 341.22 0 517 0 C517 178.2 517 356.4 517 540 C346.39 540 175.78 540 0 540 C0 361.8 0 183.6 0 0 Z M214 23 C212.50992432 23.35408936 212.50992432 23.35408936 210.98974609 23.71533203 C172.048747 33.12450629 136.88499761 52.28121938 108 80 C107.0733252 80.87785156 107.0733252 80.87785156 106.12792969 81.7734375 C95.96632155 91.43874608 87.12789973 101.57529656 79 113 C78.55462891 113.61665527 78.10925781 114.23331055 77.65039062 114.86865234 C60.75163081 138.42081949 49.3123901 165.77597613 43 194 C42.66935547 195.43279297 42.66935547 195.43279297 42.33203125 196.89453125 C41.82446128 199.25683058 41.40755792 201.61848958 41 204 C40.75068726 205.34553955 40.75068726 205.34553955 40.49633789 206.71826172 C38.61047943 218.05802972 38.60262196 229.34341426 38.625 240.8125 C38.62554382 241.85702332 38.62608765 242.90154663 38.62664795 243.97772217 C38.66421343 259.65454732 39.22481516 274.7096395 43 290 C43.32145996 291.33659668 43.32145996 291.33659668 43.64941406 292.70019531 C48.227585 311.21946321 54.96308668 329.27667362 63.97900391 346.09375 C64.66148278 347.36797168 65.33562037 348.64669512 66.00146484 349.9296875 C74.28574399 365.88162957 84.891218 380.32005958 97.37890625 393.23828125 C99.22108841 395.17929882 100.93272164 397.09271945 102.62109375 399.15625 C104.5062354 401.40975266 106.27317719 403.29976157 108.5 405.1875 C109.19222656 405.7753125 109.88445312 406.363125 110.59765625 406.96875 C111.39042969 407.6390625 112.18320313 408.309375 113 409 C113.92683594 409.8146875 114.85367188 410.629375 115.80859375 411.46875 C146.58559607 438.37341006 183.94290782 455.4414728 224 463 C224.98145996 463.18763916 225.96291992 463.37527832 226.97412109 463.56860352 C238.30357668 465.46591739 249.66521046 465.43994024 261.125 465.4375 C262.71955017 465.43910126 262.71955017 465.43910126 264.34631348 465.44073486 C281.42092503 465.41600208 297.41715861 464.35299586 314 460 C314.93070312 459.75942871 315.86140625 459.51885742 316.8203125 459.27099609 C322.62490388 457.72992669 328.32370692 455.95860524 334 454 C334.6997998 453.76168457 335.39959961 453.52336914 336.12060547 453.27783203 C365.90201188 443.00765235 392.0809837 426.52427353 415 405 C416.51385098 403.63803209 418.03405896 402.28307399 419.5625 400.9375 C420.18253906 400.38964844 420.80257813 399.84179688 421.44140625 399.27734375 C423 398 423 398 425 397 C425.32871094 397.64066406 425.65742188 398.28132813 425.99609375 398.94140625 C430.19645778 406.57946659 435.03472425 411.4621924 442.8125 415.4375 C452.50553856 417.14803622 459.64602595 416.2965122 468 411 C468.9075 410.443125 469.815 409.88625 470.75 409.3125 C478.21616784 401.63893861 480.44504225 393.81696553 480.33984375 383.390625 C479.57813873 375.79108529 475.56771835 369.60083668 470.02734375 364.47265625 C464.88273258 360.73562656 459.35582534 358.71726756 453 359 C453.61746094 357.94425781 454.23492187 356.88851563 454.87109375 355.80078125 C461.53182374 344.22329371 467.01177567 332.38295205 472 320 C472.42023438 318.97519531 472.84046875 317.95039063 473.2734375 316.89453125 C476.64977892 308.18357039 478.87462349 299.08130741 481 290 C481.20189941 289.17564453 481.40379883 288.35128906 481.61181641 287.50195312 C485.05707917 272.92953735 485.37173277 258.52466394 485.375 243.625 C485.37690338 242.69027863 485.37880676 241.75555725 485.38076782 240.79251099 C485.37675426 223.36659171 484.09494616 206.64329831 479.875 189.6875 C479.57005615 188.44838867 479.2651123 187.20927734 478.95092773 185.93261719 C476.1450407 174.91401338 472.50639964 164.42972591 468 154 C467.534729 152.90437744 467.534729 152.90437744 467.06005859 151.78662109 C457.29884241 129.05862805 443.44541045 108.52862595 426.4375 90.61328125 C424.6810406 88.73015411 423.03312887 86.85508379 421.40625 84.8671875 C419.51024324 82.60798464 417.73519394 80.70733487 415.5 78.8125 C414.8090625 78.22597656 414.118125 77.63945313 413.40625 77.03515625 C412.21515625 76.02775391 412.21515625 76.02775391 411 75 C410.0615625 74.17371094 409.123125 73.34742188 408.15625 72.49609375 C389.54878026 56.20866928 368.00210331 43.07832532 345 34 C343.92298828 33.56179932 343.92298828 33.56179932 342.82421875 33.11474609 C330.15534449 27.98647769 317.40952639 24.58108541 304 22 C303.20513184 21.83483887 302.41026367 21.66967773 301.59130859 21.49951172 C274.08798427 15.92505885 241.19509167 16.21219088 214 23 Z " fill="#FEFEFE" transform="translate(0,0)"/>
<path d="M0 0 C1.28415715 -0.01337353 1.28415715 -0.01337353 2.59425688 -0.02701724 C4.00565404 -0.02646415 4.00565404 -0.02646415 5.44556427 -0.02589989 C6.94459817 -0.03692995 6.94459817 -0.03692995 8.47391558 -0.04818285 C11.83854981 -0.07029238 15.20306058 -0.07795021 18.56775665 -0.08556175 C20.97396997 -0.09808859 23.38017941 -0.11138197 25.78638458 -0.12538719 C33.01993836 -0.16387141 40.25348197 -0.18505055 47.48710704 -0.20284277 C50.89567221 -0.21161209 54.30423117 -0.22234502 57.71279144 -0.23282051 C69.04832163 -0.26684937 80.38384796 -0.29583383 91.71942139 -0.31031799 C94.66105403 -0.31413765 97.60268663 -0.31797833 100.54431915 -0.32188988 C101.27542847 -0.32285736 102.00653778 -0.32382484 102.75980192 -0.32482164 C114.59258398 -0.3414078 126.4249607 -0.39205457 138.25756592 -0.45705123 C150.41326551 -0.52327648 162.56875948 -0.55922328 174.72464037 -0.56560647 C181.54674178 -0.56992973 188.3682527 -0.58732164 195.19017792 -0.63852882 C201.61220814 -0.68662325 208.03346573 -0.69354228 214.45565033 -0.67300606 C216.80862712 -0.67201594 219.16165642 -0.68463979 221.51447296 -0.71211815 C243.01904767 -0.94914722 243.01904767 -0.94914722 250.90130615 6.27110672 C251.53437935 6.93022741 252.16745255 7.58934811 252.81970978 8.26844215 C253.99769564 9.23875577 255.18546332 10.19741474 256.38611603 11.1395359 C257.37482697 11.98644997 258.3635379 12.83336403 259.38220978 13.70594215 C260.19262726 14.39961891 260.19262726 14.39961891 261.01941681 15.10730934 C276.27640629 28.21815197 288.86555749 42.11353354 300.81970978 58.26844215 C301.34780746 58.81047279 301.87590515 59.35250343 302.4200058 59.91095924 C304.46957862 63.36299836 304.21352227 66.71889386 304.16028595 70.61707497 C304.16072403 71.45646614 304.16116211 72.29585732 304.16161346 73.16068459 C304.15952582 75.93121655 304.13619598 78.70114108 304.11267853 81.47156715 C304.10708249 83.39398811 304.10281243 85.31641334 304.09981537 87.2388401 C304.08836724 92.29582492 304.05890025 97.35255078 304.02570343 102.40943336 C303.98960293 108.478369 303.97584125 114.54739128 303.95834351 120.61640358 C303.92926297 129.83392981 303.87177546 139.05088797 303.81970978 148.26844215 C279.72970978 148.26844215 255.63970978 148.26844215 230.81970978 148.26844215 C230.81970978 172.68844215 230.81970978 197.10844215 230.81970978 222.26844215 C206.06970978 222.26844215 181.31970978 222.26844215 155.81970978 222.26844215 C155.81970978 173.42844215 155.81970978 124.58844215 155.81970978 74.26844215 C131.72970978 74.26844215 107.63970978 74.26844215 82.81970978 74.26844215 C82.81970978 123.10844215 82.81970978 171.94844215 82.81970978 222.26844215 C58.06970978 222.26844215 33.31970978 222.26844215 7.81970978 222.26844215 C7.81970978 197.84844215 7.81970978 173.42844215 7.81970978 148.26844215 C-16.27029022 148.26844215 -40.36029022 148.26844215 -65.18029022 148.26844215 C-65.5011607 126.9974036 -65.5011607 126.9974036 -65.57091522 117.87977028 C-65.61860711 111.67551381 -65.67481709 105.47220827 -65.78380585 99.26868629 C-65.87119249 94.26299426 -65.91866042 89.25832278 -65.93930817 84.25192642 C-65.95400817 82.34896034 -65.9827144 80.44604561 -66.02613068 78.54351807 C-66.2544822 68.11542432 -66.39364187 60.51114591 -59.14048004 52.27341652 C-58.4936174 51.61177498 -57.84675476 50.95013344 -57.18029022 50.26844215 C-56.37720428 49.23590309 -55.57411835 48.20336403 -54.74669647 47.1395359 C-15.99400049 0.07729498 -15.99400049 0.07729498 0 0 Z " fill="#7783CD" transform="translate(143.18029022216797,57.731557846069336)"/>
<path d="M0 0 C0.9679953 0.00021149 1.9359906 0.00042297 2.93331909 0.00064087 C19.20176258 0.03601981 34.90384544 1.04105573 50.875 4.375 C51.7525293 4.55691895 52.63005859 4.73883789 53.53417969 4.92626953 C91.04036365 13.05672669 126.53623298 32.61634419 154.26171875 58.9375 C156.14484589 60.6939594 158.01991621 62.34187113 160.0078125 63.96875 C162.26701536 65.86475676 164.16766513 67.63980606 166.0625 69.875 C166.64902344 70.5659375 167.23554688 71.256875 167.83984375 71.96875 C168.51144531 72.7628125 169.18304688 73.556875 169.875 74.375 C170.70128906 75.3134375 171.52757812 76.251875 172.37890625 77.21875 C196.72481183 105.04012819 213.23878403 138.65308302 221.6875 174.5625 C221.88255127 175.37976563 222.07760254 176.19703125 222.27856445 177.0390625 C225.58131405 191.9808357 226.24825908 207.12921035 226.24560547 222.37817383 C226.24998086 225.17526135 226.28648691 227.97076679 226.32421875 230.76757812 C226.40158717 243.7165866 224.72695468 255.75449462 221.875 268.375 C221.215 268.375 220.555 268.375 219.875 268.375 C220.31560315 262.46164187 220.84382983 256.59380407 221.66186523 250.71948242 C225.55314443 221.15058584 222.87474567 191.01714117 214.875 162.375 C214.64361328 161.54355469 214.41222656 160.71210938 214.17382812 159.85546875 C208.76985848 141.02212197 200.24241047 122.96285675 189.875 106.375 C189.545 133.105 189.215 159.835 188.875 187.375 C188.545 187.375 188.215 187.375 187.875 187.375 C187.88618614 185.79884918 187.88618614 185.79884918 187.89759827 184.19085693 C187.96225932 174.24624209 187.97909915 164.30251856 187.95015812 154.35772324 C187.93679062 149.2458728 187.93976419 144.13516077 187.98120117 139.0234375 C188.02063717 134.08209479 188.01568748 129.14253858 187.98107719 124.2011795 C187.97551556 122.32430338 187.98544723 120.44730987 188.01176643 118.57061005 C188.17741383 105.81267836 186.97331075 98.86746586 177.875 89.375 C176.40320456 87.55245634 174.94305141 85.7203861 173.5 83.875 C161.15163426 68.97991758 147.55355139 55.75779212 131.875 44.375 C131.05393013 43.69971693 130.23286026 43.02443386 129.38690948 42.32868767 C125.13816025 39.52977259 120.85640297 39.80099701 115.90856934 39.82669067 C114.90876683 39.81621732 113.90896432 39.80574396 112.87886477 39.79495323 C109.53040915 39.76496256 106.18256505 39.7635432 102.83398438 39.76220703 C100.43218963 39.74696293 98.03040465 39.73010777 95.62863159 39.71176147 C89.10345092 39.66785661 82.57841482 39.6502266 76.05312157 39.64010859 C71.97342884 39.63358438 67.89377364 39.62053297 63.81410217 39.6061058 C52.50419077 39.56697699 41.19431419 39.53416865 29.88433075 39.52835274 C29.16103098 39.5279776 28.4377312 39.52760246 27.69251326 39.52721595 C26.22637908 39.52648348 24.7602449 39.52575608 23.29411072 39.52503373 C22.56638035 39.52466811 21.83864999 39.52430248 21.08886719 39.52392578 C19.99592837 39.52338413 19.99592837 39.52338413 18.88090998 39.52283154 C7.08900985 39.51575654 -4.70215789 39.46176511 -16.49380428 39.38693 C-28.61913391 39.31059758 -40.74410106 39.27203655 -52.86967611 39.27143371 C-59.67014161 39.27026799 -66.46973422 39.25351137 -73.26997375 39.19543839 C-79.67268325 39.14294122 -86.07367048 39.13873922 -92.47649765 39.17074966 C-94.81854393 39.17436853 -97.16069073 39.16108798 -99.50252151 39.12911224 C-114.12822738 38.94168532 -123.34069192 40.13307419 -134.125 50.375 C-135.08275581 51.21005632 -136.04051163 52.04511265 -137.02729034 52.90547371 C-139.44310377 55.01286754 -141.78172905 57.18767353 -144.125 59.375 C-145.4747286 60.54679827 -146.8286933 61.71374084 -148.1875 62.875 C-156.58811863 70.25074315 -163.94830937 78.24402216 -170.51251221 87.28894043 C-172.125 89.375 -172.125 89.375 -174.120224 91.44749451 C-181.95234535 100.34260656 -181.24794981 109.26794014 -181.125 120.48046875 C-181.1325296 122.41532517 -181.1435733 124.35017081 -181.15795898 126.2849884 C-181.18624031 131.34383552 -181.16720391 136.40140772 -181.13787842 141.46020508 C-181.11639378 146.63566153 -181.1402565 151.81089462 -181.16015625 156.98632812 C-181.19249655 167.11617213 -181.17478588 177.24524968 -181.125 187.375 C-181.455 187.375 -181.785 187.375 -182.125 187.375 C-182.455 159.985 -182.785 132.595 -183.125 104.375 C-198.63091846 131.94107726 -209.71053984 158.14485709 -215.125 189.375 C-215.25632324 190.09574707 -215.38764648 190.81649414 -215.52294922 191.55908203 C-225.17445575 246.34119555 -208.57702165 305.48772932 -177.55249023 350.67089844 C-165.26859252 368.17164344 -150.20973878 384.49573538 -133.125 397.375 C-132.60115723 397.76993652 -132.07731445 398.16487305 -131.53759766 398.57177734 C-84.92710773 433.43789185 -26.56008683 449.74809052 31.375 441.875 C33.28165573 441.59651385 35.18794018 441.31546748 37.09375 441.03125 C40.72296289 440.49108808 44.19647755 440.2278591 47.875 440.375 C47.875 441.035 47.875 441.695 47.875 442.375 C33.72769857 445.6237216 20.28119427 446.99020821 5.77172852 446.84155273 C2.67865686 446.8124167 -0.41270655 446.82104436 -3.50585938 446.83398438 C-15.67492822 446.82169355 -27.21650748 445.86924486 -39.125 443.375 C-40.24624268 443.15078369 -41.36748535 442.92656738 -42.52270508 442.69555664 C-82.35733912 434.38500537 -118.95598022 415.87120401 -148.51171875 387.8125 C-150.39484589 386.0560406 -152.26991621 384.40812887 -154.2578125 382.78125 C-156.51701536 380.88524324 -158.41766513 379.11019394 -160.3125 376.875 C-160.89902344 376.1840625 -161.48554688 375.493125 -162.08984375 374.78125 C-162.76144531 373.9871875 -163.43304688 373.193125 -164.125 372.375 C-164.95128906 371.4365625 -165.77757812 370.498125 -166.62890625 369.53125 C-183.19491012 350.60551889 -196.19969924 328.85805251 -205.31835938 305.43359375 C-206.03607723 303.60193607 -206.78905633 301.78418374 -207.546875 299.96875 C-211.34824352 290.67651583 -213.89986211 281.1453123 -216.125 271.375 C-216.32544922 270.53710938 -216.52589844 269.69921875 -216.73242188 268.8359375 C-223.4452908 239.69548353 -223.49468891 204.37760918 -216.125 175.375 C-215.88894043 174.3859668 -215.65288086 173.39693359 -215.40966797 172.37792969 C-205.96812405 133.28470271 -186.9235267 98.34309886 -159.125 69.375 C-158.53976563 68.7572168 -157.95453125 68.13943359 -157.3515625 67.50292969 C-127.1415218 35.74164727 -87.90581051 13.94306038 -45.125 4.375 C-43.69220703 4.04435547 -43.69220703 4.04435547 -42.23046875 3.70703125 C-39.86804741 3.19943506 -37.50682143 2.781564 -35.125 2.375 C-34.208396 2.2087915 -33.29179199 2.04258301 -32.34741211 1.87133789 C-21.56524554 0.10410726 -10.90373641 -0.02196858 0 0 Z " fill="#EFEFEF" transform="translate(259.125,18.625)"/>
<path d="M0 0 C0.9679953 0.00021149 1.9359906 0.00042297 2.93331909 0.00064087 C19.20176258 0.03601981 34.90384544 1.04105573 50.875 4.375 C51.7525293 4.55691895 52.63005859 4.73883789 53.53417969 4.92626953 C91.04036365 13.05672669 126.53623298 32.61634419 154.26171875 58.9375 C156.14484589 60.6939594 158.01991621 62.34187113 160.0078125 63.96875 C162.26701536 65.86475676 164.16766513 67.63980606 166.0625 69.875 C166.64902344 70.5659375 167.23554688 71.256875 167.83984375 71.96875 C168.51144531 72.7628125 169.18304688 73.556875 169.875 74.375 C170.70128906 75.3134375 171.52757812 76.251875 172.37890625 77.21875 C196.72481183 105.04012819 213.23878403 138.65308302 221.6875 174.5625 C221.88255127 175.37976563 222.07760254 176.19703125 222.27856445 177.0390625 C225.58131405 191.9808357 226.24825908 207.12921035 226.24560547 222.37817383 C226.24998086 225.17526135 226.28648691 227.97076679 226.32421875 230.76757812 C226.40158717 243.7165866 224.72695468 255.75449462 221.875 268.375 C221.215 268.375 220.555 268.375 219.875 268.375 C220.31560315 262.46164187 220.84382983 256.59380407 221.66186523 250.71948242 C225.55314443 221.15058584 222.87474567 191.01714117 214.875 162.375 C214.64361328 161.54355469 214.41222656 160.71210938 214.17382812 159.85546875 C208.76985848 141.02212197 200.24241047 122.96285675 189.875 106.375 C189.545 133.105 189.215 159.835 188.875 187.375 C188.545 187.375 188.215 187.375 187.875 187.375 C187.88618614 185.79884918 187.88618614 185.79884918 187.89759827 184.19085693 C187.96225932 174.24624209 187.97909915 164.30251856 187.95015812 154.35772324 C187.93679062 149.2458728 187.93976419 144.13516077 187.98120117 139.0234375 C188.02063717 134.08209479 188.01568748 129.14253858 187.98107719 124.2011795 C187.97551556 122.32430338 187.98544723 120.44730987 188.01176643 118.57061005 C188.17741383 105.81267836 186.97331075 98.86746586 177.875 89.375 C176.40320456 87.55245634 174.94305141 85.7203861 173.5 83.875 C161.15163426 68.97991758 147.55355139 55.75779212 131.875 44.375 C131.05393013 43.69971693 130.23286026 43.02443386 129.38690948 42.32868767 C125.13816025 39.52977259 120.85640297 39.80099701 115.90856934 39.82669067 C114.90876683 39.81621732 113.90896432 39.80574396 112.87886477 39.79495323 C109.53040915 39.76496256 106.18256505 39.7635432 102.83398438 39.76220703 C100.43218963 39.74696293 98.03040465 39.73010777 95.62863159 39.71176147 C89.10345092 39.66785661 82.57841482 39.6502266 76.05312157 39.64010859 C71.97342884 39.63358438 67.89377364 39.62053297 63.81410217 39.6061058 C52.50419077 39.56697699 41.19431419 39.53416865 29.88433075 39.52835274 C29.16103098 39.5279776 28.4377312 39.52760246 27.69251326 39.52721595 C26.22637908 39.52648348 24.7602449 39.52575608 23.29411072 39.52503373 C22.56638035 39.52466811 21.83864999 39.52430248 21.08886719 39.52392578 C19.99592837 39.52338413 19.99592837 39.52338413 18.88090998 39.52283154 C7.08900985 39.51575654 -4.70215789 39.46176511 -16.49380428 39.38693 C-28.61913391 39.31059758 -40.74410106 39.27203655 -52.86967611 39.27143371 C-59.67014161 39.27026799 -66.46973422 39.25351137 -73.26997375 39.19543839 C-79.67268325 39.14294122 -86.07367048 39.13873922 -92.47649765 39.17074966 C-94.81854393 39.17436853 -97.16069073 39.16108798 -99.50252151 39.12911224 C-114.12822738 38.94168532 -123.34069192 40.13307419 -134.125 50.375 C-135.08275581 51.21005632 -136.04051163 52.04511265 -137.02729034 52.90547371 C-139.44310377 55.01286754 -141.78172905 57.18767353 -144.125 59.375 C-145.4747286 60.54679827 -146.8286933 61.71374084 -148.1875 62.875 C-156.58811863 70.25074315 -163.94830937 78.24402216 -170.51251221 87.28894043 C-172.125 89.375 -172.125 89.375 -174.120224 91.44749451 C-181.95234535 100.34260656 -181.24794981 109.26794014 -181.125 120.48046875 C-181.1325296 122.41532517 -181.1435733 124.35017081 -181.15795898 126.2849884 C-181.18624031 131.34383552 -181.16720391 136.40140772 -181.13787842 141.46020508 C-181.11639378 146.63566153 -181.1402565 151.81089462 -181.16015625 156.98632812 C-181.19249655 167.11617213 -181.17478588 177.24524968 -181.125 187.375 C-181.455 187.375 -181.785 187.375 -182.125 187.375 C-182.455 159.985 -182.785 132.595 -183.125 104.375 C-198.63091846 131.94107726 -209.71053984 158.14485709 -215.125 189.375 C-215.25632324 190.09574707 -215.38764648 190.81649414 -215.52294922 191.55908203 C-225.17445575 246.34119555 -208.57702165 305.48772932 -177.55249023 350.67089844 C-165.26859252 368.17164344 -150.20973878 384.49573538 -133.125 397.375 C-132.60115723 397.76993652 -132.07731445 398.16487305 -131.53759766 398.57177734 C-84.92710773 433.43789185 -26.56008683 449.74809052 31.375 441.875 C33.28165573 441.59651385 35.18794018 441.31546748 37.09375 441.03125 C40.72296289 440.49108808 44.19647755 440.2278591 47.875 440.375 C47.875 441.035 47.875 441.695 47.875 442.375 C33.72769857 445.6237216 20.28119427 446.99020821 5.77172852 446.84155273 C2.67865686 446.8124167 -0.41270655 446.82104436 -3.50585938 446.83398438 C-15.67492822 446.82169355 -27.21650748 445.86924486 -39.125 443.375 C-40.24624268 443.15078369 -41.36748535 442.92656738 -42.52270508 442.69555664 C-82.35733912 434.38500537 -118.95598022 415.87120401 -148.51171875 387.8125 C-150.39484589 386.0560406 -152.26991621 384.40812887 -154.2578125 382.78125 C-156.51701536 380.88524324 -158.41766513 379.11019394 -160.3125 376.875 C-160.89902344 376.1840625 -161.48554688 375.493125 -162.08984375 374.78125 C-162.76144531 373.9871875 -163.43304688 373.193125 -164.125 372.375 C-164.95128906 371.4365625 -165.77757812 370.498125 -166.62890625 369.53125 C-183.19491012 350.60551889 -196.19969924 328.85805251 -205.31835938 305.43359375 C-206.03607723 303.60193607 -206.78905633 301.78418374 -207.546875 299.96875 C-211.34824352 290.67651583 -213.89986211 281.1453123 -216.125 271.375 C-216.32544922 270.53710938 -216.52589844 269.69921875 -216.73242188 268.8359375 C-223.4452908 239.69548353 -223.49468891 204.37760918 -216.125 175.375 C-215.88894043 174.3859668 -215.65288086 173.39693359 -215.40966797 172.37792969 C-205.96812405 133.28470271 -186.9235267 98.34309886 -159.125 69.375 C-158.53976563 68.7572168 -157.95453125 68.13943359 -157.3515625 67.50292969 C-127.1415218 35.74164727 -87.90581051 13.94306038 -45.125 4.375 C-43.69220703 4.04435547 -43.69220703 4.04435547 -42.23046875 3.70703125 C-39.86804741 3.19943506 -37.50682143 2.781564 -35.125 2.375 C-34.208396 2.2087915 -33.29179199 2.04258301 -32.34741211 1.87133789 C-21.56524554 0.10410726 -10.90373641 -0.02196858 0 0 Z M-117.125 37.375 C-117.125 37.705 -117.125 38.035 -117.125 38.375 C-37.925 38.375 41.275 38.375 122.875 38.375 C117.91098345 33.41098345 112.63776289 30.81117521 106.4375 27.625 C105.83442017 27.3144165 105.23134033 27.00383301 104.60998535 26.68383789 C72.65153229 10.29174692 38.52159402 2.15638698 2.625 2.125 C1.57486221 2.12398788 1.57486221 2.12398788 0.50350952 2.12295532 C-39.9032302 2.18434543 -84.02347794 13.35500884 -117.125 37.375 Z " fill="#DBDDE2" transform="translate(259.125,18.625)"/>
<path d="M0 0 C0.66 0 1.32 0 2 0 C1.75820646 9.14419189 -1.0464919 17.44425047 -4 26 C-4.22316895 26.65274902 -4.44633789 27.30549805 -4.67626953 27.97802734 C-9.8448422 42.91238314 -16.31986995 57.7585467 -25 71 C-24.443125 71.01417969 -23.88625 71.02835937 -23.3125 71.04296875 C-14.96097832 71.56493885 -9.8176229 74.79635578 -4.1875 80.875 C1.21910693 87.52833592 2.56634315 93.21733895 2.3515625 101.7109375 C1.54133209 109.29109315 -1.47362484 115.71390202 -7 121 C-15.42015767 126.73488303 -21.75589641 128.90576757 -32 128 C-39.15949157 126.07540549 -45.50295329 121.86252036 -49.54296875 115.61328125 C-50.76349228 113.43548436 -51.91581473 111.24831047 -53 109 C-57.60746719 112.9040275 -57.60746719 112.9040275 -62.09375 116.9453125 C-73.9724586 127.96973041 -87.0756119 137.71375233 -101 146 C-101.67611328 146.4031543 -102.35222656 146.80630859 -103.04882812 147.22167969 C-117.88077842 155.96889969 -133.20217194 162.59617124 -149.5625 167.9375 C-150.90006348 168.37968872 -150.90006348 168.37968872 -152.26464844 168.83081055 C-158.16719794 170.68569279 -163.82660903 171.62332132 -170 172 C-170 171.34 -170 170.68 -170 170 C-169.34741211 169.82984375 -168.69482422 169.6596875 -168.02246094 169.484375 C-153.24404968 165.59177771 -138.9537656 161.26593478 -125 155 C-124.18756836 154.63567871 -123.37513672 154.27135742 -122.53808594 153.89599609 C-104.63565321 145.7191673 -87.74564622 135.07447298 -73 122 C-72.1440625 121.25234375 -71.288125 120.5046875 -70.40625 119.734375 C-68.70922779 118.23159027 -67.02863988 116.70998765 -65.3671875 115.16796875 C-63.83490846 113.76464389 -62.25764332 112.40831967 -60.6328125 111.11328125 C-57.27871329 108.26647463 -55.24710114 106.39307742 -54.4609375 101.9609375 C-54.36174365 99.73168623 -54.29548548 97.50073282 -54.26171875 95.26953125 C-53.85911903 90.24003918 -51.88224369 86.10678075 -49 82 C-48.01 81.34 -47.02 80.68 -46 80 C-46.28617187 80.56460938 -46.57234375 81.12921875 -46.8671875 81.7109375 C-51.02304382 90.10863338 -53.71534685 97.22996244 -51.33984375 106.60546875 C-48.88269574 113.63652864 -45.19601184 118.62343531 -38.67578125 122.31640625 C-30.83068223 125.8510113 -23.78286666 126.25081827 -15.6875 123.3125 C-8.5960795 120.13244112 -4.50751176 114.78568621 -1 108 C1.59568423 99.67422039 -0.07936931 91.63369858 -4 84 C-8.39811156 78.01247188 -13.37940505 75.30324473 -20.4375 73.3125 C-30.03102698 72.14255769 -36.51950273 74.68194864 -45 79 C-40.91547618 74.42038239 -36.74080312 71.37995934 -30.48339844 70.74438477 C-27.81807543 70.208048 -27.81807543 70.208048 -26.29003906 67.78881836 C-25.5354541 66.32907593 -25.5354541 66.32907593 -24.765625 64.83984375 C-24.19577881 63.74800781 -23.62593262 62.65617187 -23.03881836 61.53125 C-22.4409071 60.33415029 -21.84467328 59.1362115 -21.25 57.9375 C-20.94385773 57.33309082 -20.63771545 56.72868164 -20.32229614 56.10595703 C-11.23639158 38.15247232 -4.59623248 19.58595551 0 0 Z " fill="#DDE0E3" transform="translate(478,288)"/>
<path d="M0 0 C4.09206332 1.808121 6.69807584 4.16345973 9 8 C9.66861666 12.1454233 9.95469912 14.44075786 7.75390625 18.03515625 C4.36534205 22.15044494 2.18673684 23.70563158 -3.25 24.4375 C-8.1843364 23.86182742 -10.79803186 21.71753928 -14 18 C-15.23534045 14.29397865 -15.45528745 11.90246386 -15 8 C-10.91704021 1.64314568 -7.65816344 -0.51919752 0 0 Z " fill="#F1F2F3" transform="translate(455,375)"/>
<path d="M0 0 C8 0 8 0 10.0625 1.1875 C11.38762145 3.74940148 10.76550483 5.28593742 10 8 C10 8.66 10 9.32 10 10 C10.66 10.66 11.32 11.32 12 12 C11.8125 15.5 11.8125 15.5 11 19 C8 21 8 21 0 21 C0 14.07 0 7.14 0 0 Z " fill="#707882" transform="translate(43,497)"/>
<path d="M0 0 C0.5775 0.226875 1.155 0.45375 1.75 0.6875 C-0.21875 2.21875 -0.21875 2.21875 -2.1875 3.75 C-3.43273437 4.72066406 -3.43273437 4.72066406 -4.703125 5.7109375 C-6.24949963 6.91103806 -7.80039042 8.10538902 -9.359375 9.2890625 C-29.04133892 24.30950865 -45.38586495 41.1515457 -59.25 61.6875 C-60.25 58.6875 -60.25 58.6875 -59.3125 56.125 C-54.55579742 47.40796586 -47.03706037 39.85620697 -40.25 32.6875 C-39.6607373 32.06423828 -39.07147461 31.44097656 -38.46435547 30.79882812 C-28.95490852 20.82464263 -19.10063671 11.90589264 -7.88427734 3.88378906 C-6.54992992 2.90704835 -5.27444305 1.85033204 -4.01953125 0.7734375 C-2.25 -0.3125 -2.25 -0.3125 0 0 Z " fill="#D4D7DF" transform="translate(139.25,56.3125)"/>
<path d="M0 0 C4.09206332 1.808121 6.69807584 4.16345973 9 8 C9.66861666 12.1454233 9.95469912 14.44075786 7.75390625 18.03515625 C4.36534205 22.15044494 2.18673684 23.70563158 -3.25 24.4375 C-8.1843364 23.86182742 -10.79803186 21.71753928 -14 18 C-15.23534045 14.29397865 -15.45528745 11.90246386 -15 8 C-10.91704021 1.64314568 -7.65816344 -0.51919752 0 0 Z M-10.625 4.375 C-12.79453746 8.51684424 -12.71310035 12.43312326 -12 17 C-10.83333333 19.83333333 -10.83333333 19.83333333 -8 21 C-3.43312326 21.71310035 0.48315576 21.79453746 4.625 19.625 C6.79453746 15.48315576 6.71310035 11.56687674 6 7 C4.83333333 4.16666667 4.83333333 4.16666667 2 3 C-2.56687674 2.28689965 -6.48315576 2.20546254 -10.625 4.375 Z " fill="#707982" transform="translate(455,375)"/>
<path d="M0 0 C0.66 0 1.32 0 2 0 C3.17495143 2.93425371 4.33850852 5.87289513 5.5 8.8125 C5.83386719 9.64587891 6.16773437 10.47925781 6.51171875 11.33789062 C6.82753906 12.14033203 7.14335938 12.94277344 7.46875 13.76953125 C7.90864258 14.87711792 7.90864258 14.87711792 8.35742188 16.00708008 C9 18 9 18 9 21 C8.34 21 7.68 21 7 21 C6.67 19.02 6.34 17.04 6 15 C2.7 15.33 -0.6 15.66 -4 16 C-4.99 18.475 -4.99 18.475 -6 21 C-6.66 20.67 -7.32 20.34 -8 20 C-6.85865495 16.85251982 -5.71117657 13.70731119 -4.5625 10.5625 C-4.07426758 9.21575195 -4.07426758 9.21575195 -3.57617188 7.84179688 C-3.26357422 6.98779297 -2.95097656 6.13378906 -2.62890625 5.25390625 C-2.34088135 4.46314697 -2.05285645 3.6723877 -1.75610352 2.85766602 C-1 1 -1 1 0 0 Z " fill="#7B838C" transform="translate(95,497)"/>
<path d="M0 0 C2 2 2 2 2.1953125 5.0390625 C2.17210938 6.22242188 2.14890625 7.40578125 2.125 8.625 C2.10695313 9.81351563 2.08890625 11.00203125 2.0703125 12.2265625 C2.04710938 13.14179687 2.02390625 14.05703125 2 15 C1.34 14.67 0.68 14.34 0 14 C-1.7325 14.2784375 -1.7325 14.2784375 -3.5 14.5625 C-4.655 14.706875 -5.81 14.85125 -7 15 C-7.66 14.34 -8.32 13.68 -9 13 C-8.875 10.5 -8.875 10.5 -8 8 C-5.09557968 5.82168476 -2.54875053 5.80284719 1 6 C0.34 4.68 -0.32 3.36 -1 2 C-3.31 2.33 -5.62 2.66 -8 3 C-8 2.34 -8 1.68 -8 1 C-5.23749964 -0.38125018 -3.05268901 -0.19079306 0 0 Z " fill="#7B838C" transform="translate(82,503)"/>
<path d="M0 0 C0.33 1.98 0.66 3.96 1 6 C-2.63 6 -6.26 6 -10 6 C-9.34 7.65 -8.68 9.3 -8 11 C-5.57540213 11.83492354 -5.57540213 11.83492354 -3 12 C-2.01 12.33 -1.02 12.66 0 13 C-2.79870027 14.39935013 -4.90498792 14.25265405 -8 14 C-10.15120594 12.40426977 -10.90167826 11.48895135 -11.43359375 8.84375 C-11.44399361 2.60383132 -11.44399361 2.60383132 -9.4375 -0.125 C-6.04414867 -1.34312612 -3.47550934 -0.7352039 0 0 Z " fill="#727A84" transform="translate(69,504)"/>
<path d="M0 0 C5.625 -0.25 5.625 -0.25 9 2 C9.375 5 9.375 5 9 8 C5.5647952 10.29013653 4.014669 10.17842973 0 10 C0 6.7 0 3.4 0 0 Z " fill="#ECEDEE" transform="translate(44,507)"/>
<path d="M0 0 C0.86625 0.144375 1.7325 0.28875 2.625 0.4375 C-0.375 2.4375 -0.375 2.4375 -3.0625 3.9375 C-6.16746041 7.29421395 -5.8977486 9.57211483 -5.84375 14 C-5.29932637 16.83100287 -4.24932938 18.28401518 -2.375 20.4375 C-5.375 20.4375 -5.375 20.4375 -7 19.125 C-9.04394232 16.61652533 -9.38497437 14.36340468 -9.8125 11.1875 C-9.29647516 6.76442995 -8.09451966 4.9341543 -5.109375 1.75 C-3.375 0.4375 -3.375 0.4375 0 0 Z " fill="#6F7881" transform="translate(449.375,375.5625)"/>
<path d="M0 0 C2.875 -0.125 2.875 -0.125 6 0 C6.66 0.66 7.32 1.32 8 2 C7.44444444 6.55555556 7.44444444 6.55555556 6 8 C4.00041636 8.04080783 1.99954746 8.04254356 0 8 C0 5.36 0 2.72 0 0 Z " fill="#EFF0F1" transform="translate(44,498)"/>
<path d="M0 0 C0.66 0 1.32 0 2 0 C2 1.32 2 2.64 2 4 C3.32 4.33 4.64 4.66 6 5 C4.68 5 3.36 5 2 5 C2.33 8.96 2.66 12.92 3 17 C3.99 17 4.98 17 6 17 C6 17.66 6 18.32 6 19 C1.125 18.125 1.125 18.125 0 17 C-0.07244053 14.98035801 -0.08377188 12.95832876 -0.0625 10.9375 C-0.05347656 9.83277344 -0.04445313 8.72804688 -0.03515625 7.58984375 C-0.02355469 6.73519531 -0.01195313 5.88054687 0 5 C-0.66 4.67 -1.32 4.34 -2 4 C-1.34 4 -0.68 4 0 4 C0 2.68 0 1.36 0 0 Z " fill="#838A93" transform="translate(124,499)"/>
<path d="M0 0 C2 1 2 1 3.125 3.3125 C4 6 4 6 4 10 C1.69 10 -0.62 10 -3 10 C-2.01 6.7 -1.02 3.4 0 0 Z " fill="#F3F4F4" transform="translate(95,500)"/>
<path d="M0 0 C-0.3125 2.375 -0.3125 2.375 -1 5 C-4 7 -4 7 -6.1875 6.625 C-6.785625 6.41875 -7.38375 6.2125 -8 6 C-7.67 4.35 -7.34 2.7 -7 1 C-2.25 0 -2.25 0 0 0 Z " fill="#F2F2F3" transform="translate(83,510)"/>
<path d="M0 0 C2 0.8125 2 0.8125 4 4.8125 C0.7 4.8125 -2.6 4.8125 -6 4.8125 C-3.43283582 -0.32182836 -3.43283582 -0.32182836 0 0 Z " fill="#F5F6F7" transform="translate(65,504.1875)"/>
<path d="M0 0 C7.42857143 -0.28571429 7.42857143 -0.28571429 11 2 C10.67 2.99 10.34 3.98 10 5 C9.67 4.67 9.34 4.34 9 4 C7.65252916 3.76924918 6.29622435 3.58846937 4.9375 3.4375 C3.638125 3.293125 2.33875 3.14875 1 3 C0.67 2.01 0.34 1.02 0 0 Z " fill="#79818A" transform="translate(448,375)"/>
<path d="M0 0 C1.98 0.495 1.98 0.495 4 1 C3.67 2.65 3.34 4.3 3 6 C1.68 5.67 0.36 5.34 -1 5 C-0.67 3.35 -0.34 1.7 0 0 Z " fill="#E62E2E" transform="translate(197,365)"/>
<path d="M0 0 C2.5654594 2.5654594 2.54046087 4.47686668 3 8 C2.34 8 1.68 8 1 8 C0.67 6.02 0.34 4.04 0 2 C-3.3 2 -6.6 2 -10 2 C-10 1.67 -10 1.34 -10 1 C-8.37675914 0.77837671 -6.751279 0.57310197 -5.125 0.375 C-4.22007813 0.25898438 -3.31515625 0.14296875 -2.3828125 0.0234375 C-1.59648438 0.01570313 -0.81015625 0.00796875 0 0 Z " fill="#9EA3AA" transform="translate(101,510)"/>
<path d="M0 0 C0.2475 0.53625 0.495 1.0725 0.75 1.625 C2.29696975 4.56424252 4.13014369 7.25754408 6 10 C3 10 3 10 1.3125 8.9375 C-0.65926927 6.02679298 -0.19356822 3.41970529 0 0 Z " fill="#616A75" transform="translate(441,386)"/>
<path d="M0 0 C1.65 0 3.3 0 5 0 C5 0.66 5 1.32 5 2 C6.32 2.33 7.64 2.66 9 3 C5.7 3 2.4 3 -1 3 C-0.67 2.01 -0.34 1.02 0 0 Z " fill="#E2E4E6" transform="translate(277,462)"/>
<path d="M0 0 C0 3.3 0 6.6 0 10 C-0.33 8.68 -0.66 7.36 -1 6 C-1.66 6 -2.32 6 -3 6 C-3 4.35 -3 2.7 -3 1 C-1 0 -1 0 0 0 Z " fill="#E2E4E6" transform="translate(485,256)"/>
<path d="M0 0 C1.423125 0.2784375 1.423125 0.2784375 2.875 0.5625 C5.89868793 1.28686632 5.89868793 1.28686632 8 0 C8 0.99 8 1.98 8 3 C5.08517222 3.80967438 3.53886783 4.21845993 0.6875 3.0625 C0.130625 2.711875 -0.42625 2.36125 -1 2 C-0.67 1.34 -0.34 0.68 0 0 Z " fill="#6D757F" transform="translate(448,389)"/>
<path d="M0 0 C2.475 0.495 2.475 0.495 5 1 C5.33 2.98 5.66 4.96 6 7 C1.125 2.25 1.125 2.25 0 0 Z " fill="#CCD1DE" transform="translate(432,101)"/>
</svg>
